<?xml version="1.0" encoding="UTF-8" standalone="no"?>
<!DOCTYPE svg PUBLIC "-//W3C//DTD SVG 1.1//EN" "http://www.w3.org/Graphics/SVG/1.1/DTD/svg11.dtd">
<svg width="3709px" height="2950px" version="1.1" xmlns="http://www.w3.org/2000/svg" xmlns:xlink="http://www.w3.org/1999/xlink" xml:space="preserve" xmlns:serif="http://www.serif.com/" style="fill-rule:evenodd;clip-rule:evenodd;stroke-linejoin:round;stroke-miterlimit:2;">
    <g transform="matrix(4.16667,0,0,4.16667,0,0)">
        <path d="M449.772,163.318L460.309,329.016L554.125,259.835L482.919,349.264L646.93,361.751L484.607,375.249L555.813,463.329L460.984,396.173L447.86,588.38L431.961,397.185L341.482,463.329L410.026,376.599L250.403,365.8L412.388,349.602L340.844,259.16L433.986,325.304L449.772,163.318Z" style="fill:white;fill-rule:nonzero;"/>
        <path d="M618.151,83.807C617.363,83.507 616.576,83.189 615.789,82.907C615.751,82.889 615.732,82.87 615.714,82.87C614.945,82.439 614.195,82.007 613.426,81.614L613.408,81.614C612.808,81.257 612.17,80.92 611.552,80.601L611.533,80.583C608.589,79.026 605.627,77.489 602.646,76.027C602.627,76.008 602.609,76.008 602.59,76.008C596.796,73.121 590.891,70.44 584.91,67.965C584.723,67.89 584.535,67.834 584.367,67.777C577.767,65.04 571.074,62.565 564.25,60.391C571.955,62.79 579.492,65.546 586.935,68.659C586.972,68.677 587.029,68.696 587.066,68.715C593.047,71.19 598.915,73.889 604.727,76.758L604.746,76.777C607.427,78.089 610.089,79.458 612.733,80.864L612.751,80.864C613.464,81.239 614.157,81.614 614.851,81.989L614.87,82.007C615.976,82.589 617.063,83.189 618.151,83.807Z" style="fill:white;fill-rule:nonzero;"/>
        <path d="M213.528,144.18C294.838,74.587 411.172,53.651 514.112,77.506C606.835,102.238 696.163,168.056 732.499,258.744C750.336,304.267 756.917,354.093 752.328,402.732C751.53,410.834 750.452,418.922 748.733,426.882C750.413,418.914 751.452,410.824 752.212,402.721C756.562,354.131 749.762,304.409 731.736,259.045C697.878,175.749 620.395,115.415 536.913,86.535C460.059,61.657 373.262,66.228 298.662,96.704C268.937,109.143 240.204,125.358 216.132,146.877C216.133,146.878 213.528,144.18 213.528,144.18Z" style="fill:white;fill-rule:nonzero;"/>
        <path d="M696.612,152.163C686.432,141.627 675.539,131.784 664.084,122.672C658.272,118.416 649.817,111.704 643.78,107.88L636.168,102.761C635.062,102.011 633.937,101.262 632.812,100.53L632.737,100.493C614.758,88.663 595.559,78.576 575.461,70.496C575.405,70.477 575.348,70.458 575.311,70.44C568.636,67.759 561.85,65.303 554.969,63.09C544.957,59.828 534.758,57.072 524.391,54.841C509.936,51.598 495.293,49.348 480.557,48.092L480.332,48.092C479.788,48.036 479.263,47.998 478.72,47.96C476.939,47.811 475.157,47.679 473.376,47.567C412.163,43.611 349.881,56.285 295.342,84.351C295.324,84.351 295.286,84.37 295.267,84.389C281.094,91.663 267.464,99.968 254.508,109.305C249.203,113.073 243.972,117.01 238.91,121.135C238.779,121.247 238.647,121.36 238.497,121.472C229.105,129.084 220.143,137.24 211.762,145.92C211.725,145.958 211.669,145.995 211.631,146.051C205.238,152.613 199.163,159.475 193.445,166.599C191.233,169.355 189.077,172.13 186.958,174.961C189.058,172.111 191.214,169.318 193.426,166.562C198.076,160.75 202.932,155.069 208.031,149.632C208.088,149.557 208.144,149.501 208.2,149.445C219.993,136.79 232.91,125.166 246.672,114.685C246.747,114.61 246.84,114.535 246.934,114.479C249.353,112.642 251.827,110.823 254.321,109.042C268.907,98.45 284.375,89.151 300.498,81.164C300.517,81.145 300.554,81.126 300.592,81.126C353.781,54.766 414,42.842 473.301,46.442C475.139,46.536 476.976,46.667 478.813,46.817C483.988,47.211 489.163,47.735 494.318,48.392C494.374,48.392 494.449,48.411 494.525,48.411C495.256,48.485 495.949,48.579 496.68,48.673C506.073,49.91 515.409,51.541 524.672,53.566C531.196,54.935 537.683,56.528 544.076,58.328C555.025,61.384 565.768,65.04 576.286,69.24L576.305,69.24C582.604,71.771 588.828,74.489 594.959,77.414C595.034,77.452 595.109,77.489 595.203,77.527C613.089,86.038 630.187,96.181 646.255,107.748C664.459,120.835 681.37,135.74 696.612,152.163Z" style="fill:white;fill-rule:nonzero;"/>
        <path d="M784.373,361.413C784.28,351.795 783.661,342.178 782.574,332.616C783.061,335.765 783.492,338.915 783.867,342.065C784.261,348.496 784.43,354.964 784.373,361.413Z" style="fill:white;fill-rule:nonzero;"/>
        <path d="M786.567,360.57C786.473,350.952 785.855,341.334 784.767,331.772C778.768,278.996 758.088,227.813 727.079,184.879C718.511,173.124 709.118,161.987 698.994,151.526C698.937,151.451 698.881,151.395 698.806,151.32C688.626,140.783 677.733,130.94 666.278,121.828C660.466,117.573 652.01,110.861 645.973,107.036L638.361,101.918L635.549,100.025L635.006,99.687L634.931,99.65L624.769,93.575C609.733,84.538 593.834,76.702 577.655,69.652C577.598,69.634 577.542,69.615 577.505,69.596C573.567,67.89 569.612,66.221 565.637,64.59C562.693,63.39 559.75,62.209 556.788,61.047C560.256,62.341 563.743,63.672 567.212,65.04C587.179,72.84 606.977,81.689 625.369,92.544C633.224,97.025 640.93,101.805 648.448,106.905C677.489,126.609 703.606,150.851 724.791,178.73C759.963,225.432 782.424,282.689 786.061,341.221C786.454,347.652 786.623,354.12 786.567,360.57Z" style="fill:white;fill-rule:nonzero;"/>
        <path d="M123.251,429.563C126.026,438.075 129.082,446.437 132.401,454.63L128.839,455.53C126.589,446.699 124.733,438.056 123.251,429.563Z" style="fill:white;fill-rule:nonzero;"/>
        <path d="M195.657,559.827C201.713,567.795 208.331,575.707 215.512,583.487L214.143,584.762C199.482,568.863 187.202,552.496 176.965,535.96C182.871,544.191 189.096,552.121 195.62,559.789C195.62,559.789 195.639,559.808 195.657,559.827Z" style="fill:white;fill-rule:nonzero;"/>
        <path d="M319.846,656.268C310.172,652.518 299.392,648.056 289.962,643.538C289.362,643.257 288.762,642.976 288.162,642.676C278.75,637.257 269.582,631.408 260.677,625.165C270.426,631.295 280.4,636.995 290.599,642.282C291.818,642.863 301.454,647.813 302.635,648.394C304.548,649.275 308.166,650.887 310.022,651.75L319.846,656.268Z" style="fill:white;fill-rule:nonzero;"/>
        <path d="M317.053,657.805C322.096,659.099 327.664,660.411 332.07,661.63C328.077,660.88 323.99,660.037 319.865,659.137C319.865,659.137 319.846,659.118 319.828,659.118C318.89,658.705 317.971,658.255 317.053,657.805Z" style="fill:white;fill-rule:nonzero;"/>
        <path d="M348.063,667.93C343.863,667.292 339.645,666.617 335.426,665.905C335.408,665.905 335.389,665.886 335.389,665.886C334.676,665.586 333.926,665.305 333.214,664.986C338.426,665.998 343.601,666.992 348.063,667.93Z" style="fill:white;fill-rule:nonzero;"/>
        <path d="M341.632,668.398C345.625,668.961 349.619,669.486 353.631,669.954C350.35,669.748 347.069,669.504 343.788,669.223L343.769,669.204C343.057,668.942 342.363,668.661 341.632,668.398Z" style="fill:white;fill-rule:nonzero;"/>
        <path d="M356.237,673.723C359.518,673.816 362.78,673.929 365.986,674.079C363.324,674.154 360.568,674.21 357.774,674.266L357.737,674.266C357.249,674.098 356.724,673.91 356.237,673.723Z" style="fill:white;fill-rule:nonzero;"/>
        <path d="M707.337,51.616C690.444,44.83 673.421,38.361 656.172,32.606C654.298,31.968 652.423,31.349 650.529,30.75C650.829,30.75 651.11,30.768 651.411,30.768C653.285,31.368 655.141,32.006 656.979,32.624L657.016,32.624C674.002,38.399 690.726,44.848 707.337,51.616Z" style="fill:white;fill-rule:nonzero;"/>
        <path d="M319.846,656.268C310.172,652.518 299.392,648.056 289.962,643.538C289.362,643.257 288.762,642.976 288.162,642.676C194.308,597.998 119.446,510.237 97.191,407.984C114.74,473.997 152.874,534.048 202.519,580.619C220.368,597.248 239.904,612.116 260.601,625.108C260.62,625.146 260.657,625.146 260.677,625.165C270.426,631.295 280.4,636.995 290.599,642.282C291.818,642.863 301.454,647.813 302.635,648.394C304.548,649.275 308.166,650.887 310.022,651.75L319.846,656.268Z" style="fill:white;fill-rule:nonzero;"/>
        <path d="M882.99,433.996C882.758,423.09 882.53,412.088 882.235,401.497C882.16,398.747 882.046,395.997 881.898,393.25C874.985,265.206 781.104,142.351 642.723,80.265C554.423,40.649 425.82,19.375 337.556,61.16C281.86,87.526 228.61,129.145 183.564,181.516L180.72,179.07C226.107,126.305 279.785,84.361 335.952,57.771C377.621,38.045 431.292,30.629 491.17,36.332C542.572,41.226 596.94,55.614 644.258,76.843C709.558,106.141 766.638,149.626 809.327,202.596C855.629,260.051 880.136,318.264 883.761,385.405C883.911,388.184 884.281,396.403 884.31,399.187C884.375,405.497 884.106,412.451 883.919,418.54C883.695,425.86 883.584,428.14 882.99,433.996Z" style="fill:white;fill-rule:nonzero;"/>
        <path d="M374.547,43.874C448.761,13.654 535.568,4.42 613.684,23.574C624.971,26.214 635.993,29.834 646.93,33.618C635.941,29.981 624.883,26.514 613.575,24.031C557.251,10.859 497.931,13.042 441.773,25.998C419.408,31.257 397.116,38.035 376.121,47.278L374.547,43.874Z" style="fill:white;fill-rule:nonzero;"/>
        <path d="M410.204,37.968C516.839,14.523 630.834,35.845 726.744,86.268C757.703,105.107 786.622,127.755 809.982,155.607C823.444,171.422 834.237,189.181 845.024,206.852C834.173,189.227 823.318,171.514 809.803,155.758C786.365,128.028 757.413,105.528 726.427,86.83C666.876,55.689 601.018,36.149 533.93,31.398C503.005,29.128 471.823,29.815 441.095,34.012C430.878,35.453 420.642,37.198 410.708,39.773L410.204,37.968Z" style="fill:white;fill-rule:nonzero;"/>
        <path d="M555.475,26.869C655.78,29.734 753.899,78.213 819.02,154.277C828.412,165.081 836.879,176.653 845.024,188.404L838.401,179.974C829.9,168.797 819.996,157.933 810.409,147.627C743.818,78.42 651.344,34.169 555.475,26.869Z" style="fill:white;fill-rule:nonzero;"/>
        <path d="M716.786,36.318L706.118,35.212C689.976,33.937 673.552,33.131 657.016,32.624L656.979,32.624C656.716,32.606 656.454,32.606 656.172,32.606C651.785,32.456 647.361,32.343 642.955,32.268C642.899,32.249 642.824,32.249 642.767,32.249C629.831,31.968 616.857,31.837 603.902,31.781C600.471,31.762 597.059,31.743 593.628,31.743C579.961,31.706 566.368,31.724 552.925,31.687C550.432,31.687 547.938,31.668 545.464,31.668C547.207,31.574 548.97,31.481 550.713,31.406C562.187,30.862 573.661,30.525 585.154,30.318C588.116,30.262 591.078,30.225 594.041,30.206L594.059,30.206C606.452,30.075 618.844,30.093 631.237,30.243C633.131,30.281 635.006,30.337 636.899,30.375C637.068,30.375 637.237,30.393 637.405,30.393C641.755,30.506 646.123,30.618 650.492,30.75L650.529,30.75C650.829,30.75 651.11,30.768 651.411,30.768C673.29,31.481 695.169,32.756 716.786,36.318Z" style="fill:white;fill-rule:nonzero;"/>
        <path d="M535.672,44.697C603.56,42.485 671.724,62.426 729.513,97.737C776.46,126.814 816.091,167.525 844.667,214.708C851.089,225.139 857.533,237.217 863.022,248.097C863.023,248.097 856.693,237.093 856.693,237.093C855.498,235.055 853.11,230.743 851.995,228.824C851.011,227.324 844.626,217.238 843.471,215.465C813.657,169.627 774.268,129.512 727.54,100.92C670.276,65.511 603.061,45.513 535.672,44.697Z" style="fill:white;fill-rule:nonzero;"/>
        <path d="M630.107,72.814C711.533,93.685 785.614,143.94 834.632,212.295C841.351,221.675 848.189,232.697 853.999,242.736C855.803,246.162 860.667,255.352 862.417,258.693C864.099,262.28 868.289,271.387 869.992,275.062C877.843,293.36 884.081,312.666 889.12,331.941C884.684,316.733 879.865,301.073 873.635,286.552C861.753,257.042 845.505,228.863 826.108,203.672C777.068,140.719 706.928,94.261 630.107,72.814Z" style="fill:white;fill-rule:nonzero;"/>
        <path d="M863.641,509.319C860.604,521.675 857.023,533.898 852.224,545.672C856.648,533.767 859.892,521.468 862.667,509.094C877.59,436.35 879.746,354.401 848.961,285.464C843.862,274.121 836.925,263.135 830.063,252.748C816.227,231.544 800.966,211.295 783.999,192.51C768.025,174.867 750.627,158.425 731.935,143.652C722.692,136.34 713.13,129.459 703.268,123.066C690.688,114.854 677.602,107.449 664.047,100.924C654.073,96.181 643.892,91.775 633.468,87.988C633.45,87.969 633.431,87.969 633.412,87.969C627.3,85.738 621.113,83.732 614.87,82.007L614.851,81.989C614.383,81.857 613.895,81.726 613.426,81.614L613.408,81.614C612.283,81.295 611.158,80.995 610.033,80.714C605.14,79.458 600.19,78.389 595.203,77.527C594.172,77.339 593.159,77.17 592.128,77.002C593.066,77.133 594.022,77.264 594.959,77.414C598.99,78.014 603.002,78.745 606.977,79.589C608.495,79.908 610.014,80.245 611.533,80.583L611.552,80.601C611.945,80.695 612.339,80.77 612.733,80.864L612.751,80.864C615.751,81.595 618.732,82.364 621.694,83.189C625.913,84.351 630.094,85.645 634.237,87.013C634.237,87.032 634.256,87.032 634.274,87.032C647.698,91.532 660.766,97.119 673.459,103.474C674.433,103.98 675.389,104.486 676.346,104.974C683.883,108.798 691.288,112.923 698.525,117.235C727.172,134.39 753.401,155.875 776.706,179.761C797.741,201.509 816.62,225.413 833.175,250.704C840.187,261.335 846.993,272.284 852.224,283.964C883.083,353.351 880.44,436.556 863.641,509.319Z" style="fill:white;fill-rule:nonzero;"/>
        <path d="M771.977,166.049C673.468,74.075 501.593,40.407 499.868,40.078L500.22,38.236C501.95,38.566 674.347,72.331 773.255,164.68L771.977,166.049Z" style="fill:white;fill-rule:nonzero;"/>
        <path d="M740.428,147.307L739.34,148.845C736.884,147.082 734.409,145.339 731.935,143.652C693.425,117.085 654.054,97.794 618.188,83.826C618.17,83.807 618.151,83.807 618.151,83.807C617.363,83.507 616.576,83.189 615.789,82.907C615.751,82.889 615.732,82.87 615.714,82.87C613.801,82.139 611.908,81.408 610.033,80.714C609.002,80.339 607.989,79.945 606.977,79.589C596.346,75.689 586.091,72.258 576.305,69.24L576.286,69.24C572.461,68.059 568.693,66.934 565.018,65.884C564.493,65.734 563.968,65.584 563.443,65.434C560.556,64.609 557.744,63.84 554.969,63.09C509.879,50.96 479.358,47.997 478.721,47.941L478.813,46.817L478.851,46.367C479.132,46.386 484.869,46.892 494.881,48.411C494.918,48.411 494.937,48.411 494.956,48.429C495.518,48.504 496.081,48.579 496.68,48.673C508.061,50.435 524.353,53.435 544.076,58.328C561.306,62.622 581.16,68.359 602.59,76.008C602.609,76.008 602.627,76.008 602.646,76.027L604.727,76.758L604.746,76.777C610.295,78.783 615.957,80.92 621.694,83.189C625.557,84.707 629.456,86.301 633.412,87.969C633.431,87.969 633.45,87.969 633.468,87.988C655.966,97.437 679.571,108.967 703.268,123.066C715.68,130.415 728.11,138.477 740.428,147.307Z" style="fill:white;fill-rule:nonzero;"/>
        <path d="M194.795,167.874C194.683,167.987 190.333,172.58 183.809,181.242C174.116,194.103 159.623,215.889 147.137,245.155C147.062,245.324 146.987,245.511 146.912,245.68C144.737,250.779 142.6,256.235 140.519,262.01C124.058,307.737 112.059,374.368 132.476,454.611L132.401,454.63L128.839,455.53C126.589,446.699 124.733,438.056 123.251,429.563C123.233,429.526 123.214,429.488 123.214,429.451C109.153,349.977 125.876,285.576 143.518,244.049C156.136,214.37 170.835,192.228 180.734,179.086C180.809,178.992 180.865,178.898 180.94,178.805C187.558,170.049 192.451,165.869 192.564,165.756L193.426,166.562L193.445,166.599L194.795,167.874Z" style="fill:white;fill-rule:nonzero;"/>
        <path d="M215.512,583.487L214.143,584.762C199.482,568.863 187.202,552.496 176.965,535.96C176.928,535.941 176.928,535.923 176.909,535.904C136.282,470.341 127.564,402.36 128.464,352.564C129.157,315.049 135.213,283.102 140.519,262.01C144.756,245.117 148.505,235.2 148.58,234.975L150.324,235.631C150.268,235.762 149.012,239.099 147.137,245.155C141.737,262.647 131.238,302.712 130.338,352.676C129.345,408.49 140.5,487.364 195.62,559.789C195.62,559.789 195.639,559.808 195.657,559.827C201.713,567.795 208.331,575.707 215.512,583.487Z" style="fill:white;fill-rule:nonzero;"/>
        <path d="M51.97,188.404C24.481,250.399 21.068,321.868 36.326,387.506C42.774,415.436 53.122,442.802 65.701,468.534C70.899,478.875 76.936,489.821 82.792,499.776C75.845,488.422 68.611,476.302 62.716,464.335C19.906,379.99 11.09,275.133 51.97,188.404Z" style="fill:white;fill-rule:nonzero;"/>
        <path d="M32.689,248.097C18.013,294.999 20.134,346.224 33.02,393.29C40.894,421.673 53.123,448.772 68.124,474.117C65.544,469.931 62.886,465.785 60.411,461.531C55.565,453.06 50.77,444.198 46.806,435.311C20.282,377.821 11.566,308.62 32.689,248.097Z" style="fill:white;fill-rule:nonzero;"/>
        <path d="M348.063,667.93C343.863,667.292 339.645,666.617 335.426,665.905C335.408,665.905 335.389,665.886 335.389,665.886C307.791,661.255 280.194,654.956 253.965,645.413C248.884,643.575 243.784,641.813 238.741,639.92C233.642,637.764 221.286,632.476 216.412,630.395C211.894,628.164 199.388,621.827 194.72,619.446C186.64,614.628 174.622,607.991 167.066,602.554C163.242,599.873 157.336,596.236 153.755,593.33C70.662,532.979 17.435,434.1 10.124,331.941C20.791,433.051 73.587,530.073 155.817,590.518C159.342,593.405 165.191,597.08 168.96,599.723C176.384,605.123 188.327,611.834 196.276,616.615C200.888,618.978 213.206,625.352 217.687,627.677L225.017,630.958C254.021,644.457 285.387,654.131 316.453,661.555C321.44,662.68 327.346,663.842 333.214,664.986C338.426,665.998 343.601,666.992 348.063,667.93Z" style="fill:white;fill-rule:nonzero;"/>
        <path d="M353.631,669.954C350.35,669.748 347.069,669.504 343.788,669.223L343.769,669.204C293.936,664.93 244.553,652.237 199.407,630.62C123.664,591.268 58.944,527.655 24.279,449.137C11.53,419.852 2.024,388.655 0,356.689C4.105,390.942 15.823,423.958 31.009,454.78C65.281,523.642 122.164,579.325 187.689,618.715C235.01,645.3 287.918,660.824 341.594,668.38C341.594,668.398 341.613,668.398 341.632,668.398C345.625,668.961 349.619,669.486 353.631,669.954Z" style="fill:white;fill-rule:nonzero;"/>
        <path d="M5.399,426.882C25.101,496.184 73.09,555.434 131.545,596.434C179.612,629.699 235.159,651.094 292.24,662.87C300.935,664.996 323.059,668.511 332.07,669.947C322.856,668.648 300.808,665.502 292.103,663.544C234.654,652.647 178.77,631.21 130.476,597.971C71.886,556.719 23.81,496.879 5.399,426.882Z" style="fill:white;fill-rule:nonzero;"/>
        <path d="M10.124,495.051C42.689,549.628 93.154,592.432 149.165,621.601C194.873,645.407 245.41,659.75 296.448,666.309C307.435,667.894 321.011,668.963 332.07,669.947C316.428,669.401 299.944,668.434 284.391,666.452C238.887,660.78 193.938,648.007 152.804,627.621C94.345,598.11 41.335,553.268 10.124,495.051Z" style="fill:white;fill-rule:nonzero;"/>
        <path d="M365.986,674.079C363.324,674.154 360.568,674.21 357.774,674.266L357.737,674.266C350.35,674.398 342.682,674.473 335.614,674.585C329.033,674.941 312.103,673.854 305.241,673.573C285.312,672.635 264.464,670.217 244.816,666.73C178.709,655.274 112.134,632.57 58.944,590.668C80.599,606.529 104.897,619.015 129.55,629.495C191.477,655.856 258.539,668.811 325.565,672.71C335.576,673.348 345.981,673.442 356.199,673.723L356.237,673.723C359.518,673.816 362.78,673.929 365.986,674.079Z" style="fill:white;fill-rule:nonzero;"/>
        <path d="M332.07,661.63C328.077,660.88 323.99,660.037 319.865,659.137C319.865,659.137 319.846,659.118 319.828,659.118C311.616,657.318 303.292,655.274 295.436,653.175C238.422,637.032 184.821,608.235 141.025,568.207C109.659,539.504 81.986,505.682 63.781,467.116C63.613,466.76 63.444,466.404 63.275,466.048C63.688,466.816 64.1,467.585 64.55,468.354C65.656,470.397 66.8,472.422 67.962,474.428C70.174,478.271 72.462,482.077 74.843,485.827C105.009,533.617 147.062,573.682 194.345,604.373C225.88,624.527 260.264,640.182 295.886,651.618C299.373,652.687 307.772,655.162 311.297,656.212C313.059,656.737 315.009,657.262 317.034,657.787L317.053,657.805C322.096,659.099 327.664,660.411 332.07,661.63Z" style="fill:white;fill-rule:nonzero;"/>
        <path d="M697.266,118.897C606.089,64.16 487.108,40.039 485.916,39.805L486.182,38.237C487.378,38.472 606.768,62.38 698.232,117.29L697.266,118.897Z" style="fill:white;fill-rule:nonzero;"/>
        <path d="M699.776,109.759C584.477,42.261 474.524,47.477 473.42,47.54L473.31,46.516C474.407,46.451 584.942,40.361 700.724,108.141L699.776,109.759Z" style="fill:white;fill-rule:nonzero;"/>
        <path d="M789.623,466.141C771.475,545.091 717.18,612.322 649.367,655.124C615.151,676.385 577.148,691.29 537.796,699.764C510.067,705.539 481.869,708.857 453.522,707.807C451.553,707.732 444.148,707.076 444.148,707.076L444.148,692.959C414.788,690.109 385.747,683.772 357.774,674.266C360.568,674.21 363.324,674.154 365.986,674.079C362.78,673.929 359.518,673.816 356.237,673.723L356.199,673.723C352.037,672.298 347.894,670.798 343.788,669.223C347.069,669.504 350.35,669.748 353.631,669.954C349.619,669.486 345.625,668.961 341.632,668.398C341.613,668.398 341.594,668.398 341.594,668.38C339.532,667.573 337.489,666.748 335.426,665.905C339.645,666.617 343.863,667.292 348.063,667.93C343.601,666.992 338.426,665.998 333.214,664.986C328.714,663.13 324.271,661.161 319.865,659.137C323.99,660.037 328.077,660.88 332.07,661.63C327.664,660.411 322.096,659.099 317.053,657.805L317.034,657.787C307.21,653.175 297.573,648.131 288.162,642.676C288.762,642.976 289.362,643.257 289.962,643.538C299.392,648.056 310.172,652.518 319.846,656.268L310.022,651.75C308.166,650.887 304.548,649.275 302.635,648.394C301.454,647.813 291.818,642.863 290.599,642.282C280.4,636.995 270.426,631.295 260.677,625.165C260.657,625.146 260.62,625.146 260.601,625.108C246.822,615.509 233.717,604.954 221.38,593.536C159.492,536.185 120.702,456.767 105.422,374.368C86.992,262.385 142.3,147.607 229.798,78.727C340.376,-12.597 496.324,-14.509 628.556,23.7C636.224,25.894 643.855,28.256 651.411,30.768C651.11,30.768 650.829,30.75 650.529,30.75L650.492,30.75C643.18,28.369 635.868,26.119 628.463,24.038C496.474,-13.478 340.92,-11.115 231.129,80.376C144.662,149.051 90.198,262.891 108.909,373.787C112.527,392.985 117.308,411.565 123.214,429.451C123.214,429.488 123.233,429.526 123.251,429.563C124.733,438.056 126.589,446.699 128.839,455.53L132.401,454.63C144.175,483.934 159.098,511.156 176.909,535.904C176.928,535.923 176.928,535.941 176.965,535.96C187.202,552.496 199.482,568.863 214.143,584.762L215.512,583.487C208.331,575.707 201.713,567.795 195.657,559.827C248.153,621.321 320.465,664.461 407.832,682.141C419.831,684.522 432.055,686.472 444.148,687.428L444.148,605.141L559.562,507.275L676.402,611.853C700.906,591.455 721.435,566.37 738.384,539.428C781.28,471.522 793.71,386.817 775.337,308.88C758.051,224.382 706.418,150.213 636.168,102.761L643.78,107.88C649.817,111.704 658.272,118.416 664.084,122.672C675.539,131.784 686.432,141.627 696.612,152.163C696.688,152.238 696.744,152.294 696.8,152.369C729.291,187.354 754.357,229.219 768.794,275.021C775.056,293.919 779.686,313.193 782.574,332.616C783.661,342.178 784.28,351.795 784.373,361.413C784.43,354.964 784.261,348.496 783.867,342.065C792.21,410.89 778.993,480.934 741.271,541.228C726.085,565.714 707.843,588.38 686.62,607.916C684.22,610.147 681.783,612.303 679.27,614.422C677.358,616.034 675.389,617.628 673.346,619.184L671.921,620.421L559.412,519.724L453.522,609.491L453.522,702.183C511.061,704.208 569.368,691.159 621.001,665.792C700.606,626.046 765.888,552.965 786.717,465.448C800.366,409.596 797.16,351.008 786.548,294.838C784.092,282.745 780.849,270.484 776.462,258.935C748.096,183.979 687.613,124.191 618.957,84.67C617.907,84.07 616.857,83.489 615.789,82.907C616.576,83.189 617.363,83.507 618.151,83.807C618.151,83.807 618.17,83.807 618.188,83.826C618.507,83.995 618.826,84.182 619.145,84.351C688.213,123.591 749.202,183.248 778.112,258.335C782.611,269.94 785.967,282.277 788.498,294.463C799.485,350.839 803.047,409.803 789.623,466.141Z" style="fill:white;fill-rule:nonzero;"/>
        <rect x="533.207" y="618.115" width="18.663" height="16.424" style="fill:white;fill-rule:nonzero;"/>
        <rect x="533.207" y="595.842" width="18.663" height="16.424" style="fill:white;fill-rule:nonzero;"/>
        <rect x="556.605" y="618.115" width="18.663" height="16.424" style="fill:white;fill-rule:nonzero;"/>
        <rect x="556.605" y="595.842" width="18.663" height="16.424" style="fill:white;fill-rule:nonzero;"/>
        <g transform="matrix(0.341861,0,0,0.302774,-242.684,-129.652)">
            <path d="M2524.99,2149.88L2475.3,2149.88L2475.3,2256.25C2475.3,2265.28 2478.48,2273.93 2484.13,2280.32C2489.79,2286.7 2497.45,2290.29 2505.45,2290.29L2524.99,2290.29L2524.99,2149.88Z" style="fill:white;"/>
        </g>
    </g>
</svg>
